<svg xmlns:mydata="http://www.w3.org/2000/svg" mydata:contrastcolor="ffffff" mydata:template="Contrast" mydata:presentation="2.5" mydata:layouttype="undefined" mydata:specialfontid="undefined" mydata:id1="041" mydata:id2="128" mydata:companyname="Taxí Utec" mydata:companytagline="" version="1.1" xmlns="http://www.w3.org/2000/svg" xmlns:xlink="http://www.w3.org/1999/xlink" style="height: 755px;" viewBox="0 0 550 470"><g fill="#2eb0d9" fill-rule="nonzero" stroke="none" stroke-width="1" stroke-linecap="butt" stroke-linejoin="miter" stroke-miterlimit="10" stroke-dasharray="" stroke-dashoffset="0" font-family="none" font-weight="none" font-size="none" text-anchor="none" style="mix-blend-mode: normal"><g data-paper-data="{&quot;isGlobalGroup&quot;:true,&quot;bounds&quot;:{&quot;x&quot;:65,&quot;y&quot;:189.16248925193466,&quot;width&quot;:420,&quot;height&quot;:91.67502149613071}}"><g data-paper-data="{&quot;isPrimaryText&quot;:true}" id="element-id-74992"><path d="M86.84867,279.84439c-0.92691,0 -1.6552,-0.26483 -2.18487,-0.7945c-0.52966,-0.52966 -0.7945,-1.25795 -0.7945,-2.18487v-54.62167c0,-0.66208 -0.33104,-0.99312 -0.99312,-0.99312h-14.89682c-0.92691,0 -1.6552,-0.26483 -2.18487,-0.7945c-0.52966,-0.52966 -0.7945,-1.25795 -0.7945,-2.18487v-2.97936c0,-0.92691 0.26483,-1.6552 0.7945,-2.18487c0.52966,-0.52966 1.25795,-0.7945 2.18487,-0.7945h41.21453c0.92691,0 1.6552,0.26483 2.18487,0.7945c0.52966,0.52966 0.7945,1.25795 0.7945,2.18487v2.97936c0,0.92691 -0.26483,1.6552 -0.7945,2.18487c-0.52966,0.52966 -1.25795,0.7945 -2.18487,0.7945h-14.89682c-0.66208,0 -0.99312,0.33104 -0.99312,0.99312v54.62167c0,0.92691 -0.26483,1.6552 -0.7945,2.18487c-0.52966,0.52966 -1.25795,0.7945 -2.18487,0.7945z" data-paper-data="{&quot;glyphName&quot;:&quot;T&quot;,&quot;glyphIndex&quot;:0,&quot;firstGlyphOfWord&quot;:true,&quot;word&quot;:1}" fill="#2eb0d9" id="element-id-55028"></path><path d="M158.94927,279.84439c-0.66208,0.52966 -1.40692,0.76139 -2.23452,0.69518c-0.8276,-0.06621 -1.60555,-0.29794 -2.33383,-0.69518l-28.89983,-16.88306c-0.46346,-0.26483 -0.87726,-0.26483 -1.2414,0c-0.36414,0.26483 -0.61242,0.59587 -0.74484,0.99312l-4.0718,13.50645c-0.46346,1.58899 -1.58899,2.38349 -3.37661,2.38349h-4.86629c-1.92003,0 -2.61522,-0.92691 -2.08555,-2.78074l19.86242,-62.07008c0.33104,-1.05933 0.77794,-1.77107 1.34071,-2.13521c0.56277,-0.36414 1.30761,-0.54622 2.23452,-0.54622h6.95185c0.92691,0 1.67175,0.18207 2.23452,0.54622c0.56277,0.36414 1.00967,1.07588 1.34071,2.13521l18.96862,59.38865c0.46346,1.52279 0.19862,2.71453 -0.7945,3.57524zM137.00129,224.92479c-0.19862,-0.72829 -0.52966,-1.09243 -0.99312,-1.09243c-0.46346,0 -0.7945,0.36414 -0.99312,1.09243l-7.84566,26.2184c-0.26483,0.86071 -0.29794,1.50623 -0.09931,1.93659c0.19862,0.43035 0.52966,0.77794 0.99312,1.04278l18.67068,10.92433c0.72829,0.46346 1.25795,0.51311 1.58899,0.14897c0.33104,-0.36414 0.43035,-0.77794 0.29794,-1.2414z" data-paper-data="{&quot;glyphName&quot;:&quot;A&quot;,&quot;glyphIndex&quot;:1,&quot;word&quot;:1}" fill="#2eb0d9" id="element-id-13585"></path><path d="M213.07438,279.84439c-1.12554,0 -2.05245,-0.23173 -2.78074,-0.69518c-0.72829,-0.46346 -1.35727,-1.09243 -1.88693,-1.88693l-13.50645,-22.24592c-0.33104,-0.52966 -0.71174,-0.81105 -1.14209,-0.84415c-0.43035,-0.0331 -0.84415,0.28138 -1.2414,0.94347l-13.60576,22.1466c-0.52966,0.7945 -1.15864,1.42347 -1.88693,1.88693c-0.72829,0.46346 -1.6552,0.69518 -2.78074,0.69518h-4.86629c-1.05933,0 -1.72141,-0.29794 -1.98624,-0.89381c-0.26483,-0.59587 -0.13242,-1.29106 0.39725,-2.08555l19.26655,-30.09157c0.72829,-1.25795 0.72829,-2.4497 0,-3.57524l-17.87618,-27.90671c-0.52966,-0.7945 -0.62898,-1.48968 -0.29794,-2.08555c0.33104,-0.59587 1.02623,-0.89381 2.08555,-0.89381h4.66767c2.05245,0 3.54213,0.7945 4.46905,2.38349l12.3147,20.35899c0.33104,0.52966 0.72829,0.7945 1.19175,0.7945c0.46346,0 0.86071,-0.26483 1.19175,-0.7945l12.41402,-20.35899c0.52966,-0.86071 1.12554,-1.47313 1.78762,-1.83727c0.66208,-0.36414 1.55589,-0.54622 2.68143,-0.54622h4.66767c1.05933,0 1.75451,0.31449 2.08555,0.94347c0.33104,0.62898 0.23173,1.30761 -0.29794,2.0359l-17.87618,27.80739c-0.86071,1.39037 -0.86071,2.68143 0,3.87317l19.26655,29.89295c0.52966,0.7945 0.66208,1.48968 0.39725,2.08555c-0.26483,0.59587 -0.92691,0.89381 -1.98624,0.89381z" data-paper-data="{&quot;glyphName&quot;:&quot;X&quot;,&quot;glyphIndex&quot;:2,&quot;word&quot;:1}" fill="#2eb0d9" id="element-id-64488"></path><path d="M232.34093,279.84439c-0.92691,0 -1.6552,-0.26483 -2.18487,-0.7945c-0.52966,-0.52966 -0.7945,-1.25795 -0.7945,-2.18487v-61.57352c0,-0.92691 0.26483,-1.6552 0.7945,-2.18487c0.52966,-0.52966 1.25795,-0.7945 2.18487,-0.7945h3.47592c0.92691,0 1.6552,0.26483 2.18487,0.7945c0.52966,0.52966 0.7945,1.25795 0.7945,2.18487v61.57352c0,0.92691 -0.26483,1.6552 -0.7945,2.18487c-0.52966,0.52966 -1.25795,0.7945 -2.18487,0.7945zM238.10103,204.46649c-0.52966,0.66208 -1.17519,1.02623 -1.93659,1.09243c-0.76139,0.06621 -1.50623,-0.16552 -2.23452,-0.69518l-1.98624,-1.58899c-0.72829,-0.52966 -1.10899,-1.17519 -1.14209,-1.93659c-0.0331,-0.76139 0.21518,-1.50623 0.74484,-2.23452l7.15047,-8.73947c0.59587,-0.72829 1.27451,-1.12554 2.0359,-1.19175c0.76139,-0.06621 1.47313,0.19862 2.13521,0.7945l1.98624,1.48968c0.72829,0.59587 1.12554,1.27451 1.19175,2.0359c0.06621,0.76139 -0.19862,1.50623 -0.7945,2.23452z" data-paper-data="{&quot;glyphName&quot;:&quot;Í&quot;,&quot;glyphIndex&quot;:3,&quot;lastGlyphOfWord&quot;:true,&quot;word&quot;:1}" fill="#2eb0d9" id="element-id-74615"></path><path d="M317.25279,215.29151c0,-0.92691 0.26483,-1.6552 0.7945,-2.18487c0.52966,-0.52966 1.25795,-0.7945 2.18487,-0.7945h3.47592c0.92691,0 1.6552,0.26483 2.18487,0.7945c0.52966,0.52966 0.7945,1.25795 0.7945,2.18487v42.70421c0,3.37661 -0.57932,6.47184 -1.73796,9.28568c-1.15864,2.81384 -2.78074,5.21389 -4.86629,7.20013c-2.08555,1.98624 -4.55181,3.54213 -7.39875,4.66767c-2.84695,1.12554 -5.95873,1.68831 -9.33534,1.68831c-3.37661,0 -6.48839,-0.56277 -9.33534,-1.68831c-2.84695,-1.12554 -5.3132,-2.68143 -7.39875,-4.66767c-2.08555,-1.98624 -3.70765,-4.38629 -4.86629,-7.20013c-1.15864,-2.81384 -1.73796,-5.90907 -1.73796,-9.28568v-42.70421c0,-0.92691 0.26483,-1.6552 0.7945,-2.18487c0.52966,-0.52966 1.25795,-0.7945 2.18487,-0.7945h3.47592c0.92691,0 1.6552,0.26483 2.18487,0.7945c0.52966,0.52966 0.7945,1.25795 0.7945,2.18487v42.70421c0,3.97248 1.19175,7.28289 3.57524,9.93121c2.38349,2.64832 5.82631,3.97248 10.32846,3.97248c4.50215,0 7.94497,-1.32416 10.32846,-3.97248c2.38349,-2.64832 3.57524,-5.95873 3.57524,-9.93121z" data-paper-data="{&quot;glyphName&quot;:&quot;U&quot;,&quot;glyphIndex&quot;:4,&quot;firstGlyphOfWord&quot;:true,&quot;word&quot;:2}" fill="#2eb0d9" id="element-id-9059"></path><path d="M356.97764,279.84439c-0.92691,0 -1.6552,-0.26483 -2.18487,-0.7945c-0.52966,-0.52966 -0.7945,-1.25795 -0.7945,-2.18487v-54.62167c0,-0.66208 -0.33104,-0.99312 -0.99312,-0.99312h-14.89682c-0.92691,0 -1.6552,-0.26483 -2.18487,-0.7945c-0.52966,-0.52966 -0.7945,-1.25795 -0.7945,-2.18487v-2.97936c0,-0.92691 0.26483,-1.6552 0.7945,-2.18487c0.52966,-0.52966 1.25795,-0.7945 2.18487,-0.7945h41.21453c0.92691,0 1.6552,0.26483 2.18487,0.7945c0.52966,0.52966 0.7945,1.25795 0.7945,2.18487v2.97936c0,0.92691 -0.26483,1.6552 -0.7945,2.18487c-0.52966,0.52966 -1.25795,0.7945 -2.18487,0.7945h-14.89682c-0.66208,0 -0.99312,0.33104 -0.99312,0.99312v54.62167c0,0.92691 -0.26483,1.6552 -0.7945,2.18487c-0.52966,0.52966 -1.25795,0.7945 -2.18487,0.7945z" data-paper-data="{&quot;glyphName&quot;:&quot;T&quot;,&quot;glyphIndex&quot;:5,&quot;word&quot;:2}" fill="#2eb0d9" id="element-id-53180"></path><path d="M394.21969,279.84439c-0.92691,0 -1.6552,-0.26483 -2.18487,-0.7945c-0.52966,-0.52966 -0.7945,-1.25795 -0.7945,-2.18487v-61.57352c0,-0.92691 0.26483,-1.6552 0.7945,-2.18487c0.52966,-0.52966 1.25795,-0.7945 2.18487,-0.7945h32.773c0.92691,0 1.6552,0.26483 2.18487,0.7945c0.52966,0.52966 0.7945,1.25795 0.7945,2.18487v2.97936c0,0.92691 -0.26483,1.6552 -0.7945,2.18487c-0.52966,0.52966 -1.25795,0.7945 -2.18487,0.7945h-25.32459c-0.66208,0 -0.99312,0.33104 -0.99312,0.99312v17.87618c0,0.66208 0.33104,0.99312 0.99312,0.99312h23.33835c0.92691,0 1.6552,0.26483 2.18487,0.7945c0.52966,0.52966 0.7945,1.25795 0.7945,2.18487v2.97936c0,0.92691 -0.26483,1.6552 -0.7945,2.18487c-0.52966,0.52966 -1.25795,0.7945 -2.18487,0.7945h-23.33835c-0.66208,0 -0.99312,0.33104 -0.99312,0.99312v18.8693c0,0.66208 0.33104,0.99312 0.99312,0.99312h27.31083c0.92691,0 1.6552,0.26483 2.18487,0.7945c0.52966,0.52966 0.7945,1.25795 0.7945,2.18487v2.97936c0,0.92691 -0.26483,1.6552 -0.7945,2.18487c-0.52966,0.52966 -1.25795,0.7945 -2.18487,0.7945z" data-paper-data="{&quot;glyphName&quot;:&quot;E&quot;,&quot;glyphIndex&quot;:6,&quot;word&quot;:2}" fill="#2eb0d9" id="element-id-61513"></path><path d="M484.09716,268.92006c0.66208,0.66208 0.96002,1.39037 0.89381,2.18487c-0.06621,0.7945 -0.36414,1.45658 -0.89381,1.98624c-2.11866,2.11866 -4.60146,3.93938 -7.44841,5.46217c-2.84695,1.52279 -6.5215,2.28418 -11.02365,2.28418c-3.2442,0 -6.25666,-0.57932 -9.0374,-1.73796c-2.78074,-1.15864 -5.18078,-2.78074 -7.20013,-4.86629c-2.01935,-2.08555 -3.60834,-4.60146 -4.76698,-7.54772c-1.15864,-2.94626 -1.73796,-6.1739 -1.73796,-9.68293v-21.84867c0,-3.44282 0.57932,-6.63736 1.73796,-9.58362c1.15864,-2.94626 2.74764,-5.46217 4.76698,-7.54772c2.01935,-2.08555 4.41939,-3.7242 7.20013,-4.91595c2.78074,-1.19175 5.79321,-1.78762 9.0374,-1.78762c2.18487,0 4.17111,0.21518 5.95873,0.64553c1.78762,0.43035 3.40972,0.97657 4.86629,1.63865c1.45658,0.66208 2.73108,1.40692 3.82352,2.23452c1.09243,0.8276 2.00279,1.60555 2.73108,2.33383c1.39037,1.39037 1.39037,2.78074 0,4.17111l-2.28418,2.28418c-0.66208,0.66208 -1.29106,1.00967 -1.88693,1.04278c-0.59587,0.0331 -1.29106,-0.31449 -2.08555,-1.04278c-0.86071,-0.7945 -2.16831,-1.72141 -3.92283,-2.78074c-1.75451,-1.05933 -4.15456,-1.58899 -7.20013,-1.58899c-2.11866,0 -3.98904,0.3807 -5.61113,1.14209c-1.6221,0.76139 -3.01247,1.82072 -4.17111,3.17799c-1.15864,1.35727 -2.0359,2.94626 -2.63177,4.76698c-0.59587,1.82072 -0.89381,3.75731 -0.89381,5.80976v21.84867c0,4.43594 1.17519,8.02773 3.52558,10.77537c2.35039,2.74764 5.61113,4.12145 9.78224,4.12145c2.91316,0 5.37941,-0.54622 7.39875,-1.63865c2.01935,-1.09243 3.658,-2.20142 4.91595,-3.32696c0.59587,-0.52966 1.27451,-0.8276 2.0359,-0.89381c0.76139,-0.06621 1.47313,0.23173 2.13521,0.89381z" data-paper-data="{&quot;glyphName&quot;:&quot;C&quot;,&quot;glyphIndex&quot;:7,&quot;lastGlyphOfWord&quot;:true,&quot;word&quot;:2}" fill="#2eb0d9" id="element-id-45266"></path></g></g></g><rect data-element-id="element-id-74992" stroke-width="2" fill="transparent" class="invisible-element-box grouping-element" x="65" y="189" width="420" height="92" data-element-name="isPrimaryText"></rect><rect data-element-id="element-id-13585" stroke-width="2" fill="transparent" class="invisible-element-box individual-element" x="109" y="212" width="53" height="68"></rect><rect data-element-id="element-id-64488" stroke-width="2" fill="transparent" class="invisible-element-box individual-element" x="167" y="212" width="53" height="68"></rect><rect data-element-id="element-id-9059" stroke-width="2" fill="transparent" class="invisible-element-box individual-element" x="280" y="212" width="47" height="69"></rect><rect data-element-id="element-id-55028" stroke-width="2" fill="transparent" class="invisible-element-box individual-element" x="65" y="212" width="47" height="68"></rect><rect data-element-id="element-id-53180" stroke-width="2" fill="transparent" class="invisible-element-box individual-element" x="335" y="212" width="47" height="68"></rect><rect data-element-id="element-id-45266" stroke-width="2" fill="transparent" class="invisible-element-box individual-element" x="443" y="211" width="42" height="70"></rect><rect data-element-id="element-id-61513" stroke-width="2" fill="transparent" class="invisible-element-box individual-element" x="391" y="212" width="41" height="68"></rect><rect data-element-id="element-id-74615" stroke-width="2" fill="transparent" class="invisible-element-box individual-element" x="229" y="189" width="17" height="91"></rect></svg>